<?xml version="1.0" encoding="utf-8"?>
<!-- Generator: Adobe Illustrator 16.0.4, SVG Export Plug-In . SVG Version: 6.00 Build 0)  -->
<!DOCTYPE svg PUBLIC "-//W3C//DTD SVG 1.1//EN" "http://www.w3.org/Graphics/SVG/1.1/DTD/svg11.dtd">
<svg version="1.1" id="Layer_1" xmlns="http://www.w3.org/2000/svg" xmlns:xlink="http://www.w3.org/1999/xlink" x="0px" y="0px"
	 width="517.236px" height="129.142px" viewBox="0 0 517.236 129.142" enable-background="new 0 0 517.236 129.142"
	 xml:space="preserve">
<g>
	<path d="M517.236,129.142V54.563h-18.449v45.619l-33.879-45.619h-18.337v74.578h18.337V83.522l33.879,45.619H517.236z
		 M404.978,101.412h-15.318l7.715-23.703L404.978,101.412z M434.272,129.142l-26.724-74.578h-20.127l-27.17,74.578h19.455
		l4.809-12.97h25.492l4.585,12.97H434.272z M346.277,129.142v-16.437h-21.915V99.847h20.797V83.41h-20.797V70.999h21.915V54.563
		h-40.252v74.578H346.277z M271.699,91.908c0,5.479-1.789,10.622-5.145,14.647c-3.688,4.36-8.162,6.149-15.206,6.149h-4.137V70.999
		h4.137c7.044,0,11.517,1.901,15.206,6.262C269.91,81.175,271.699,86.43,271.699,91.908 M290.819,91.797
		c0-22.586-18.226-37.233-37.01-37.233h-25.046v74.578h25.381C272.93,129.142,290.819,113.377,290.819,91.797 M180.127,129.142
		v-16.437h-21.915V99.847h20.797V83.41h-20.797V70.999h21.915V54.563h-40.252v74.578H180.127z M123.328,129.142V54.563h-18.449
		V83.41H78.268V54.563H59.931v74.578h18.337V98.506h26.611v30.636H123.328z M48.638,70.999V54.563H0v16.436h15.094v58.143h18.338
		V70.999H48.638z"/>
</g>
<polygon points="278.835,25.453 263.914,10.533 263.917,10.53 253.386,0 253.383,0.003 253.38,0 242.848,10.53 242.852,10.534 
	227.932,25.453 238.463,35.984 253.383,21.064 268.304,35.984 "/>
</svg>
