<?xml version="1.0" encoding="utf-8"?>
<!-- Generator: Adobe Illustrator 16.0.4, SVG Export Plug-In . SVG Version: 6.00 Build 0)  -->
<!DOCTYPE svg PUBLIC "-//W3C//DTD SVG 1.1//EN" "http://www.w3.org/Graphics/SVG/1.1/DTD/svg11.dtd">
<svg version="1.1" id="Layer_1" xmlns="http://www.w3.org/2000/svg" xmlns:xlink="http://www.w3.org/1999/xlink" x="0px" y="0px"
	 width="18px" height="17.998px" viewBox="0 0 18 17.998" enable-background="new 0 0 18 17.998" xml:space="preserve">
<path id="White_29_" d="M17.007,0H0.995C0.444,0,0,0.443,0,0.993v16.012c0,0.549,0.444,0.993,0.995,0.993h8.62v-6.971H7.269V8.312
	h2.347V6.31c0-2.325,1.421-3.592,3.493-3.592c0.992,0,1.849,0.075,2.097,0.11v2.427l-1.438,0c-1.129,0-1.349,0.537-1.349,1.323
	v1.734h2.689l-0.35,2.715h-2.34v6.971h4.588c0.549,0,0.993-0.444,0.993-0.993V0.993C18,0.443,17.556,0,17.007,0z"/>
</svg>
