<?xml version="1.0" encoding="utf-8"?>
<!-- Generator: Adobe Illustrator 16.0.4, SVG Export Plug-In . SVG Version: 6.00 Build 0)  -->
<!DOCTYPE svg PUBLIC "-//W3C//DTD SVG 1.1//EN" "http://www.w3.org/Graphics/SVG/1.1/DTD/svg11.dtd">
<svg version="1.1" id="Layer_1" xmlns="http://www.w3.org/2000/svg" xmlns:xlink="http://www.w3.org/1999/xlink" x="0px" y="0px"
	 width="18px" height="17.998px" viewBox="0 0 18 17.998" enable-background="new 0 0 18 17.998" xml:space="preserve">
<path fill-rule="evenodd" clip-rule="evenodd" d="M15.923,7.615h-1.566C14.472,8.058,14.538,8.521,14.538,9
	c0,3.058-2.479,5.538-5.538,5.538c-3.059,0-5.538-2.48-5.538-5.538c0-0.479,0.069-0.942,0.182-1.385H2.077v7.614
	c0,0.383,0.311,0.692,0.692,0.692h12.462c0.384,0,0.691-0.31,0.691-0.692V7.615z M15.923,2.769c0-0.382-0.308-0.693-0.691-0.693
	h-2.078c-0.381,0-0.691,0.311-0.691,0.693v2.077c0,0.382,0.311,0.692,0.691,0.692h2.078c0.384,0,0.691-0.311,0.691-0.692V2.769z
	 M9,5.538c-1.912,0-3.462,1.55-3.462,3.462c0,1.909,1.55,3.461,3.462,3.461c1.91,0,3.462-1.552,3.462-3.461
	C12.462,7.088,10.91,5.538,9,5.538 M15.923,17.998H2.077C0.931,17.998,0,17.067,0,15.921V2.076C0,0.929,0.931,0,2.077,0h13.846
	C17.072,0,18,0.929,18,2.076v13.845C18,17.067,17.072,17.998,15.923,17.998"/>
</svg>
