<?xml version="1.0" encoding="utf-8"?>
<!-- Generator: Adobe Illustrator 16.0.4, SVG Export Plug-In . SVG Version: 6.00 Build 0)  -->
<!DOCTYPE svg PUBLIC "-//W3C//DTD SVG 1.1//EN" "http://www.w3.org/Graphics/SVG/1.1/DTD/svg11.dtd">
<svg version="1.1" id="Layer_1" xmlns="http://www.w3.org/2000/svg" xmlns:xlink="http://www.w3.org/1999/xlink" x="0px" y="0px"
	 width="18px" height="18px" viewBox="0 0 18 18" enable-background="new 0 0 18 18" xml:space="preserve">
<path d="M18,3.418c-0.663,0.294-1.376,0.492-2.123,0.583c0.762-0.459,1.349-1.182,1.624-2.044c-0.713,0.423-1.504,0.73-2.343,0.896
	c-0.675-0.718-1.636-1.166-2.698-1.166c-2.039,0-3.692,1.653-3.692,3.692c0,0.29,0.031,0.573,0.098,0.843
	C5.795,6.067,3.074,4.597,1.25,2.364c-0.315,0.544-0.5,1.178-0.5,1.854c0,1.283,0.653,2.412,1.646,3.075
	C1.789,7.275,1.219,7.107,0.722,6.831c0,0.015,0,0.03,0,0.046c0,1.789,1.273,3.281,2.962,3.62c-0.311,0.086-0.637,0.13-0.972,0.13
	c-0.238,0-0.47-0.023-0.694-0.065c0.467,1.467,1.833,2.535,3.448,2.563c-1.265,0.991-2.855,1.582-4.587,1.582
	c-0.298,0-0.591-0.018-0.879-0.053c1.634,1.049,3.575,1.659,5.659,1.659c6.793,0,10.507-5.626,10.507-10.506
	c0-0.16-0.004-0.32-0.01-0.477C16.877,4.811,17.502,4.16,18,3.418z"/>
</svg>
