<svg xmlns="http://www.w3.org/2000/svg" width="517.236" height="129.142"><path d="M517.236 129.142v-74.579h-18.449v45.619l-33.879-45.619h-18.337v74.578h18.337v-45.619l33.879 45.619h18.449zm-112.258-27.73h-15.318l7.715-23.703 7.603 23.703zm29.294 27.73l-26.724-74.578h-20.127l-27.17 74.578h19.455l4.809-12.97h25.492l4.585 12.97h19.68zm-87.995 0v-16.437h-21.915v-12.858h20.797v-16.437h-20.797v-12.411h21.915v-16.436h-40.252v74.578h40.252zm-74.578-37.234c0 5.479-1.789 10.622-5.145 14.647-3.688 4.36-8.162 6.149-15.206 6.149h-4.137v-41.705h4.137c7.044 0 11.517 1.901 15.206 6.262 3.356 3.914 5.145 9.169 5.145 14.647m19.12-.111c0-22.586-18.226-37.233-37.01-37.233h-25.046v74.578h25.381c18.786 0 36.675-15.765 36.675-37.345m-110.692 37.345v-16.437h-21.915v-12.858h20.797v-16.437h-20.797v-12.411h21.915v-16.436h-40.252v74.578h40.252zm-56.799 0v-74.579h-18.449v28.847h-26.611v-28.847h-18.337v74.578h18.337v-30.635h26.611v30.636h18.449zm-74.69-58.143v-16.436h-48.638v16.436h15.094v58.143h18.338v-58.143h15.206z"/><polygon points="278.835,25.453 263.914,10.533 263.917,10.53 253.386,0 253.383,0.003 253.38,0 242.848,10.53 242.852,10.534 227.932,25.453 238.463,35.984 253.383,21.064 268.304,35.984"/></svg>