<svg xmlns="http://www.w3.org/2000/svg" width="18" height="17.998"><path fill-rule="evenodd" clip-rule="evenodd" d="M15.923 7.615h-1.566c.115.443.181.906.181 1.385 0 3.058-2.479 5.538-5.538 5.538s-5.538-2.48-5.538-5.538c0-.479.069-.942.182-1.385h-1.567v7.614c0 .383.311.692.692.692h12.462c.384 0 .691-.31.691-.692v-7.614zm0-4.846c0-.382-.308-.693-.691-.693h-2.078c-.381 0-.691.311-.691.693v2.077c0 .382.311.692.691.692h2.078c.384 0 .691-.311.691-.692v-2.077zm-6.923 2.769c-1.912 0-3.462 1.55-3.462 3.462 0 1.909 1.55 3.461 3.462 3.461 1.91 0 3.462-1.552 3.462-3.461 0-1.912-1.552-3.462-3.462-3.462m6.923 12.46h-13.846c-1.146 0-2.077-.931-2.077-2.077v-13.845c0-1.147.931-2.076 2.077-2.076h13.846c1.149 0 2.077.929 2.077 2.076v13.845c0 1.146-.928 2.077-2.077 2.077"/></svg>