<svg xmlns="http://www.w3.org/2000/svg" width="18" height="18"><path d="M18 3.418c-.663.294-1.376.492-2.123.583.762-.459 1.349-1.182 1.624-2.044-.713.423-1.504.73-2.343.896-.675-.718-1.636-1.166-2.698-1.166-2.039 0-3.692 1.653-3.692 3.692 0 .29.031.573.098.843-3.071-.155-5.792-1.625-7.616-3.858-.315.544-.5 1.178-.5 1.854 0 1.283.653 2.412 1.646 3.075-.607-.018-1.177-.186-1.674-.462v.046c0 1.789 1.273 3.281 2.962 3.62-.311.086-.637.13-.972.13-.238 0-.47-.023-.694-.065.467 1.467 1.833 2.535 3.448 2.563-1.265.991-2.855 1.582-4.587 1.582-.298 0-.591-.018-.879-.053 1.634 1.049 3.575 1.659 5.659 1.659 6.793 0 10.507-5.626 10.507-10.506l-.01-.477c.721-.519 1.346-1.17 1.844-1.912z"/></svg>